<?xml version="1.0" encoding="UTF-8"?>
<svg xmlns="http://www.w3.org/2000/svg" xmlns:xlink="http://www.w3.org/1999/xlink" width="2836" height="2835" viewBox="0 0 2836 2835">
<path fill-rule="evenodd" fill="rgb(224, 255, 255)" fill-opacity="1" d="M 1 0.351562 L 2835.640625 0.351562 L 2835.640625 2835 L 1 2835 L 1 0.351562 "/>
<path fill-rule="evenodd" fill="rgb(1.997375%, 1.997375%, 1.997375%)" fill-opacity="1" d="M 1175.949219 2009.78125 C 1178.558594 2002.945312 1173.570312 2008.074219 1182.078125 2002.765625 C 1189.859375 1997.914062 1192.710938 1999.757812 1210.25 1986.53125 C 1260.378906 1948.726562 1238.871094 1942.195312 1336.738281 1936.605469 C 1376.96875 1934.308594 1482.28125 1934.390625 1509.699219 1931.628906 C 1535.308594 1929.046875 1545.320312 1913.984375 1551.910156 1915.160156 C 1563.691406 1922.46875 1577.53125 1940.011719 1577.261719 1961.171875 C 1576.949219 1985.109375 1574.679688 2005.203125 1572.230469 2028.097656 C 1562.910156 2027.980469 1552.730469 2016.019531 1545.308594 2010.066406 C 1518.050781 1988.199219 1481.261719 1970.921875 1444.839844 1972.308594 C 1454.53125 1980.652344 1546.171875 2003.847656 1569.71875 2061.554688 C 1573.371094 2070.488281 1574.449219 2140.207031 1562.308594 2146.878906 C 1561.789062 2147.171875 1556.089844 2148.867188 1555.550781 2149 C 1490.78125 2165.085938 1492.648438 2158.890625 1477.691406 2136.632812 C 1462.789062 2114.460938 1447.601562 2091.421875 1416.988281 2090.3125 C 1387.179688 2089.234375 1340.441406 2099.789062 1314.960938 2088.375 C 1296.109375 2079.933594 1272.601562 2057.316406 1251.609375 2044.246094 C 1239.449219 2036.679688 1210.359375 2020.285156 1197.058594 2016.671875 C 1187.308594 2014.023438 1183.058594 2015.101562 1175.949219 2009.78125 Z M 2294.25 2161.6875 C 2280.78125 2168.820312 2214.210938 2166.992188 2189.070312 2166.988281 C 2142.609375 2166.992188 2084.808594 2157.015625 2041.609375 2170.558594 C 2026.949219 2175.148438 2006.589844 2193.527344 1995.460938 2202.339844 C 1974.859375 2218.652344 1971.03125 2228.183594 1943.75 2208.753906 C 1914.800781 2188.132812 1878.5 2168.519531 1832.519531 2164.011719 C 1764.058594 2157.300781 1711.980469 2169.734375 1683.570312 2167.054688 C 1684.230469 2150.355469 1707.921875 2125.730469 1719.320312 2113.929688 C 1736.300781 2096.351562 1750.238281 2086.832031 1773.449219 2075.074219 C 1824.71875 2049.109375 1864.191406 2047.167969 1929.789062 2045.894531 C 1927.058594 2044.128906 1929.980469 2045.40625 1925.109375 2043.894531 C 1924.769531 2043.789062 1920.308594 2042.6875 1920 2042.625 L 1883.179688 2039.277344 C 1864.359375 2038.613281 1848.5 2038.886719 1830.738281 2041.882812 C 1814.039062 2044.703125 1804.449219 2049.558594 1789.171875 2055.078125 C 1776.050781 2059.816406 1762.308594 2069.53125 1750.140625 2071.230469 C 1754.390625 2056.011719 1796.691406 2017.613281 1808.859375 2007.179688 C 1868.019531 1956.429688 1908.371094 1949.769531 1972.421875 1924.054688 C 1990.210938 1916.910156 2049.738281 1895.609375 2066.839844 1894.242188 C 2057.148438 1918.003906 1988.601562 1955.191406 2030.5 1976.222656 C 2068.238281 1995.164062 2082.890625 1991.757812 2123.800781 2032.886719 C 2148.53125 2057.746094 2174.019531 2084.359375 2197.941406 2108.539062 C 2223.929688 2134.800781 2244.128906 2149.738281 2282.078125 2154.949219 C 2291.300781 2156.21875 2292.269531 2154.960938 2294.25 2161.6875 Z M 1066.648438 1628.460938 C 1049.140625 1611.378906 1007.621094 1474.25 1016.96875 1428.320312 C 1039.96875 1425.351562 1194.199219 1511.621094 1199.558594 1518.191406 C 1196.019531 1526.109375 1085.171875 1621.960938 1066.648438 1628.460938 Z M 880.882812 1495.019531 C 873.292969 1495.171875 860.53125 1488.609375 853.984375 1484.148438 C 828.074219 1466.511719 808.722656 1470.320312 830.929688 1430.328125 C 835.378906 1422.320312 832 1424.03125 838.785156 1420.96875 C 845.652344 1424.730469 847.222656 1432.761719 850.402344 1439.238281 C 852.648438 1443.828125 857.320312 1453.570312 860.773438 1458.429688 C 866.941406 1467.109375 880.160156 1484.039062 880.882812 1495.019531 Z M 929.089844 1678.421875 C 902.738281 1681.628906 865.351562 1669.429688 849.605469 1657.210938 C 831.414062 1643.089844 821.371094 1623.398438 808.777344 1598.828125 C 795.445312 1572.808594 752.164062 1488.140625 750.617188 1459.328125 C 762.492188 1461.890625 802.609375 1487.878906 815.273438 1495.359375 C 892.976562 1541.289062 864.835938 1516.230469 879.804688 1580.949219 C 895.28125 1647.871094 923.429688 1664.199219 929.089844 1678.421875 Z M 768.691406 1434.589844 C 770.605469 1420.421875 804.65625 1356.539062 813.46875 1351.5 C 841.765625 1380.808594 809.261719 1427.949219 796.542969 1450.320312 C 784.535156 1447.539062 777.550781 1439.460938 768.691406 1434.589844 Z M 1774.121094 1247.601562 C 1775.820312 1228.121094 1774.03125 1202.710938 1777.078125 1184.261719 C 1790.410156 1183.199219 1828.789062 1205.929688 1839.871094 1213.238281 C 1858.320312 1225.398438 1876.570312 1243.601562 1889.871094 1258.398438 C 1921.96875 1294.121094 1947.890625 1328.058594 1963.089844 1375.109375 C 1993.230469 1468.46875 1957.5 1612.390625 1913.648438 1683.738281 C 1880.898438 1737.039062 1830.460938 1796.210938 1791.46875 1846.378906 C 1775.671875 1866.703125 1764.058594 1880.960938 1751.410156 1901.445312 C 1667.25 2037.726562 1703.800781 2056.792969 1683.371094 2118.214844 C 1677.429688 2136.074219 1657.839844 2167.476562 1665.738281 2189.117188 C 1673.160156 2197.210938 1706.640625 2182.550781 1710.050781 2197.890625 C 1710.179688 2198.515625 1710.289062 2199.050781 1710.390625 2199.730469 C 1715.621094 2234.011719 1698.121094 2230.261719 1672.171875 2230.828125 C 1660.078125 2231.09375 1641.480469 2233.578125 1631.449219 2227.589844 C 1607.851562 2213.503906 1605.089844 2199.171875 1603.179688 2165.871094 C 1598.191406 2078.859375 1606.519531 1918.878906 1639.179688 1843.839844 C 1667.441406 1778.921875 1711.109375 1742.210938 1755.941406 1690.621094 C 1782.480469 1660.078125 1815.320312 1629.539062 1840.75 1593.871094 C 1871.480469 1550.789062 1884.589844 1514.621094 1884.941406 1459.121094 C 1885.171875 1422.230469 1882.320312 1413.558594 1869.589844 1386.300781 C 1842.761719 1328.859375 1810.898438 1324.640625 1768.378906 1308.171875 C 1768.429688 1288.070312 1772.480469 1266.480469 1774.121094 1247.601562 Z M 1611 1524.171875 C 1590.101562 1473.929688 1651.320312 1344.101562 1679.980469 1304.5 C 1689.460938 1291.398438 1712.25 1261.25 1735.488281 1262.800781 C 1741.890625 1298.179688 1705.21875 1387.140625 1691.53125 1413.101562 C 1679.148438 1436.601562 1668.46875 1454.179688 1655.519531 1474.128906 C 1648.320312 1485.230469 1622.800781 1522.261719 1611 1524.171875 Z M 893.644531 1455.128906 C 874.121094 1445.480469 815.039062 1282.191406 821.269531 1268.371094 C 858.0625 1260.839844 945.152344 1335.109375 953.648438 1339.789062 C 951.933594 1349.390625 916.242188 1412.539062 908.792969 1427.800781 C 904.515625 1436.570312 900.496094 1449.578125 893.644531 1455.128906 Z M 1407.378906 1344.160156 C 1391.140625 1359.671875 1335.601562 1414.921875 1321.871094 1417.230469 C 1314.941406 1390.71875 1284.949219 1278.5 1284.21875 1258.820312 C 1302.410156 1259.378906 1396.480469 1318.929688 1417.691406 1329.53125 C 1415.738281 1338.800781 1413.398438 1338.410156 1407.378906 1344.160156 Z M 903.355469 1539.289062 C 903.28125 1503.871094 907.921875 1488.011719 920.707031 1461 C 952.730469 1393.359375 984.1875 1346.039062 1041.058594 1296.421875 C 1072.429688 1269.039062 1113.839844 1245.238281 1155.269531 1220.648438 C 1170.910156 1211.378906 1263.800781 1162.410156 1281.648438 1159.769531 C 1281.46875 1180.691406 1272.148438 1194.011719 1296.351562 1199.789062 C 1310.761719 1203.230469 1337.191406 1201.671875 1351.910156 1199.75 C 1372.710938 1197.039062 1435.429688 1179.078125 1448.101562 1181.359375 C 1458.160156 1197.550781 1477.578125 1243.679688 1466.21875 1267.949219 C 1439.679688 1324.621094 1431.28125 1312.671875 1410.699219 1300.75 C 1380.921875 1283.519531 1294.160156 1227.46875 1261.949219 1232.5 C 1252.949219 1255.78125 1284.398438 1361.140625 1292.039062 1389.808594 C 1302.300781 1428.339844 1311.359375 1432.589844 1279.539062 1456.839844 C 1263.378906 1469.148438 1239.160156 1490.558594 1224.878906 1497.851562 C 1206.800781 1500.339844 1048.078125 1387.160156 1006.738281 1401.421875 C 993.023438 1406.148438 992.171875 1415.398438 992.101562 1431.691406 C 991.90625 1475.640625 998.34375 1510.589844 1009.621094 1547.699219 C 1015.761719 1567.921875 1043.011719 1630.601562 1041.320312 1644.78125 C 1029.691406 1654.828125 1007.230469 1663.679688 989.117188 1668.328125 C 961.492188 1675.410156 957.484375 1665.339844 942.265625 1648.871094 C 931.515625 1637.238281 920.730469 1618.878906 913.867188 1603.488281 C 902.78125 1578.621094 903.414062 1569.570312 903.355469 1539.289062 Z M 1299.851562 1185.109375 C 1298.078125 1165.070312 1356.820312 1066.699219 1369.671875 1045.050781 C 1384.78125 1051.628906 1432.570312 1144.640625 1433.378906 1157.410156 C 1412.648438 1172.199219 1332.300781 1187.171875 1299.851562 1185.109375 Z M 862.238281 1022.351562 L 894.585938 1082.671875 C 905.433594 1103.089844 914.785156 1122.359375 924.945312 1142.988281 C 941.875 1177.371094 944.1875 1176.148438 924.570312 1209.519531 C 912.753906 1229.609375 900.285156 1246.550781 887.6875 1262.980469 C 875.402344 1263.449219 869.292969 1256.640625 860.304688 1252.058594 C 864.230469 1240.511719 885.074219 1210.78125 892.566406 1198.519531 C 910.449219 1169.269531 907.289062 1164.941406 889.421875 1140.679688 C 876.972656 1123.769531 824.847656 1054.828125 821.910156 1036.570312 C 831.242188 1030.519531 847.113281 1022.078125 862.238281 1022.351562 Z M 1738.410156 1160.480469 C 1726.089844 1161.308594 1703.050781 1129.019531 1696.320312 1118.46875 C 1666.5 1071.699219 1632.191406 948.25 1657.199219 914.558594 C 1674.121094 891.769531 1686.140625 935.148438 1691.890625 949.820312 C 1712.550781 1002.589844 1745.128906 1106.398438 1738.410156 1160.480469 Z M 1172.488281 1000.800781 C 1168.808594 972.191406 1176.128906 935.78125 1185.941406 911.691406 C 1194.210938 891.359375 1199.601562 877.050781 1209.839844 857.601562 C 1211.089844 855.21875 1212.890625 851.570312 1214.320312 849.339844 C 1218.890625 842.21875 1214.46875 846.578125 1220.660156 842.371094 C 1231.359375 847.070312 1236.378906 859.011719 1243.378906 868.800781 C 1253.359375 882.738281 1301.738281 942.570312 1298.789062 952.761719 C 1288.808594 966.691406 1199.800781 1002.75 1172.488281 1000.800781 Z M 816.757812 1016.761719 C 816.902344 990.53125 823.785156 960.890625 828.367188 935.851562 C 833.550781 907.5 840.570312 891.46875 850.605469 869.921875 C 879.519531 868 930.179688 934.671875 919.660156 959.429688 C 911.992188 977.460938 847.085938 1015.171875 816.757812 1016.761719 Z M 984.875 831.929688 C 977.246094 805.910156 987.589844 739.269531 996.277344 715.640625 C 1005.460938 690.660156 1035.390625 651.851562 1056.101562 646.601562 C 1073.628906 657.730469 1158.800781 743.800781 1161.929688 762.878906 C 1149.519531 779.160156 1012.511719 831.828125 984.875 831.929688 Z M 782.511719 844.410156 C 770.941406 801.980469 809.886719 692.5 839.851562 671.089844 C 870.871094 648.921875 906.726562 710.96875 912.410156 746.398438 C 915.34375 764.679688 895.550781 775.988281 878.5625 787.808594 C 861.957031 799.359375 800.894531 844.058594 782.511719 844.410156 Z M 892.929688 632.75 C 923.714844 617.390625 963.242188 604.621094 999.839844 613.429688 C 1005.550781 614.800781 1031.339844 628.03125 1035.039062 632.070312 C 1034.550781 640.601562 1031.671875 641.550781 1025.660156 645.949219 C 1008.539062 658.46875 992.65625 674.769531 983.492188 694.460938 L 974.496094 712.75 C 964.789062 732.769531 963.253906 763.480469 963.210938 786.089844 C 963.113281 839.550781 955.726562 876.78125 1023.730469 848.46875 L 1031.308594 845.339844 C 1037.601562 842.761719 1039.449219 841.699219 1046.949219 839.730469 C 1057 837.089844 1054.25 837.101562 1061.398438 833.949219 L 1182.691406 784.660156 C 1191.160156 791.578125 1192.671875 798.710938 1199.011719 807.910156 C 1206.699219 819.101562 1206.121094 824.558594 1198.699219 835.671875 C 1188.230469 851.359375 1179.351562 871.078125 1171.328125 886.480469 C 1156.148438 915.679688 1151.410156 952.789062 1151.921875 986.621094 C 1152.109375 999.078125 1156.78125 1005.761719 1160.539062 1016.441406 C 1177.199219 1019.261719 1200.210938 1021.570312 1216.5 1013.769531 C 1238.558594 1003.191406 1268.230469 996.050781 1294.011719 983.710938 L 1304.078125 978.808594 C 1312.921875 974.761719 1319.410156 973.628906 1325.539062 980.691406 L 1338.570312 997.25 C 1343.851562 1003.5 1346.828125 1008.359375 1352.359375 1015.019531 C 1357.730469 1021.480469 1359.378906 1028.351562 1355.308594 1036.96875 C 1351.238281 1045.609375 1342.050781 1056.808594 1337.570312 1065.800781 L 1325.191406 1084.769531 C 1319.820312 1091.488281 1312.921875 1104.488281 1305.730469 1109.289062 C 1294.03125 1117.078125 1278.539062 1121.648438 1265.089844 1128.179688 L 1182.75 1167.988281 C 1159.738281 1179.699219 1127.960938 1197.269531 1105.449219 1211.03125 L 1049.128906 1247.648438 C 1045.78125 1250.578125 1045.808594 1252.019531 1042.238281 1255.359375 C 1029.140625 1267.648438 1013.601562 1276.730469 1000.949219 1290.128906 C 973.820312 1318.851562 972.570312 1328.578125 952.472656 1311.648438 L 920.957031 1286.25 C 902.84375 1271.75 916.988281 1273.730469 922.558594 1260.488281 L 942.816406 1229.78125 C 977.46875 1180.609375 970.605469 1171.53125 944.742188 1127.558594 C 942.871094 1124.378906 942.027344 1123.050781 940.121094 1119.570312 L 918.597656 1079.488281 C 912.894531 1068.941406 906.414062 1057.871094 900.394531 1047.148438 C 898.46875 1043.71875 897.789062 1041.710938 896.261719 1038.738281 C 873.835938 995.210938 903.347656 1014.011719 922.929688 983.78125 C 928.011719 975.941406 929.570312 976.320312 931.714844 973.96875 C 944.945312 959.449219 930.773438 927.308594 923.949219 914.039062 C 890.839844 849.691406 862.703125 856.890625 841.933594 844.359375 C 842.375 837.101562 844.308594 835.46875 850.554688 831.71875 C 871.964844 818.851562 897.898438 803.789062 915.183594 786.539062 C 926.253906 775.5 929.085938 781.140625 929.550781 758.75 C 930.109375 731.96875 921.609375 708.820312 911 690.601562 C 890.320312 655.089844 875.109375 658.648438 867.953125 646.839844 Z M 1452.730469 700.570312 C 1449.578125 719.679688 1443.511719 727.539062 1450.949219 746.898438 C 1449.449219 716.371094 1460.070312 673.890625 1495.800781 694.53125 C 1507.648438 701.371094 1516.871094 711.660156 1524.539062 720.660156 C 1532.949219 730.519531 1537.390625 741.070312 1545.308594 751.75 L 1546.820312 745.050781 L 1549.800781 739.761719 C 1559.300781 742.648438 1607.730469 798.851562 1615.371094 809.109375 C 1625.808594 823.140625 1663.328125 876.921875 1662.488281 897.910156 C 1660.378906 900.429688 1661.050781 899.839844 1658.121094 902.75 C 1648.160156 912.660156 1644.308594 916.210938 1642.789062 938.050781 C 1641.441406 957.53125 1643.101562 976.828125 1645.089844 994.621094 C 1649.609375 1034.871094 1647.210938 1013.148438 1655.949219 1042.851562 C 1664.730469 1072.671875 1676.949219 1096.96875 1692.429688 1122.339844 C 1712.671875 1155.511719 1712.929688 1148.511719 1733.351562 1168.050781 C 1740.898438 1175.28125 1738.730469 1181.46875 1738.589844 1193.269531 C 1738.371094 1212.410156 1738.648438 1231.101562 1737.601562 1250.25 C 1720.589844 1264.71875 1710.199219 1259.539062 1678.269531 1298.539062 C 1655.640625 1326.191406 1616.070312 1406.890625 1606.671875 1441.820312 C 1592.828125 1493.28125 1607.949219 1526.960938 1596.351562 1539.480469 C 1588.761719 1547.660156 1574.851562 1557.039062 1566.730469 1564.710938 C 1519.019531 1609.710938 1481.269531 1622.621094 1436.808594 1649.890625 C 1421.238281 1659.441406 1335.230469 1691.761719 1317.46875 1691.171875 C 1322.460938 1677.179688 1405.121094 1595.789062 1411.601562 1580.050781 C 1414.710938 1570.058594 1417.621094 1567.011719 1428.160156 1571.269531 L 1428.390625 1567.488281 C 1431.179688 1550.738281 1449.710938 1531.058594 1460.308594 1517.398438 L 1562.070312 1379.050781 C 1566.269531 1370.488281 1562.039062 1376.078125 1563.578125 1368.210938 C 1564.46875 1363.621094 1561.890625 1369.308594 1565.289062 1362.539062 C 1569.761719 1353.648438 1562.28125 1363.558594 1569.460938 1358.011719 C 1574.921875 1330.078125 1589.46875 1324.960938 1590.800781 1246.03125 C 1592.078125 1170.078125 1571.589844 1091.660156 1543.660156 1021.789062 C 1537.421875 1006.160156 1530.921875 989.480469 1524.078125 974.191406 L 1498.078125 913.648438 C 1469.660156 851.441406 1424.589844 765.96875 1386.308594 711.269531 C 1376.351562 697.050781 1367.441406 683.148438 1358.089844 671.808594 L 1327.78125 634.570312 C 1321.421875 625.53125 1300.808594 607.300781 1299.390625 599.128906 C 1309.421875 599.570312 1381.121094 629.121094 1391.558594 634.238281 C 1411.371094 643.960938 1464.671875 667.921875 1475.589844 678.488281 C 1470.890625 685.460938 1467.5 681.921875 1459.871094 687.75 C 1455.550781 691.050781 1451.449219 696.609375 1452.730469 700.570312 Z M 865.132812 604.101562 C 868.351562 606.171875 860.179688 609.871094 883.625 603.070312 C 889.84375 601.261719 896.363281 599.769531 902.433594 598.53125 C 913.308594 596.308594 933.78125 590.589844 943.019531 598.308594 C 928.640625 617.511719 792.855469 609.328125 768.003906 819.019531 C 766.964844 827.820312 760.242188 862.71875 769.300781 868.570312 C 780.503906 873.261719 802.796875 852.78125 820.039062 853.328125 C 834.488281 883.511719 823.582031 894.078125 817.980469 927.660156 C 814.847656 946.429688 810.320312 992.601562 802.921875 1006.261719 C 791.636719 1003.339844 779.835938 979.539062 773.621094 969.390625 C 765.121094 955.5 758.414062 942.050781 750.992188 926.671875 C 715.902344 853.949219 705.578125 790.289062 707.878906 707.941406 C 709.363281 654.710938 711.648438 641.679688 730.636719 599.988281 C 761.464844 532.300781 795.152344 500.289062 862.054688 469.800781 C 923.945312 441.589844 1019.628906 441.449219 1085.050781 468.089844 C 1166.070312 501.089844 1240.171875 585.878906 1298.601562 646.949219 C 1388.261719 740.679688 1483.269531 944.480469 1530.519531 1073.128906 C 1554.898438 1139.539062 1574.808594 1217.851562 1559.828125 1296.378906 C 1543.71875 1380.839844 1509.441406 1415.851562 1469.390625 1467.320312 C 1415.839844 1536.140625 1379.28125 1582.828125 1320.449219 1645.410156 C 1300.789062 1666.308594 1240.621094 1727.761719 1220.460938 1743.78125 C 1133.359375 1813 984.574219 1907.246094 836.027344 1839.527344 C 721.765625 1787.441406 664.574219 1625.210938 701.199219 1536.800781 C 707.257812 1522.179688 719.546875 1503.371094 731.1875 1498.949219 C 739.121094 1503.371094 777.375 1592.390625 788.253906 1612.980469 C 811.902344 1657.75 823.742188 1683.53125 872.738281 1699.460938 C 971.757812 1731.640625 1068.820312 1661.898438 1123.238281 1621.199219 C 1182.359375 1577 1251.351562 1516.101562 1310.519531 1466.710938 C 1350.398438 1433.410156 1457.539062 1342.558594 1485.5 1297.671875 C 1500.730469 1273.210938 1500.539062 1258.109375 1492.578125 1229.621094 C 1456.160156 1099.148438 1346.148438 967.078125 1266.238281 856.550781 C 1196.121094 759.570312 1070.53125 586.480469 935.832031 587.089844 C 903.71875 587.230469 890.058594 596.441406 865.132812 604.101562 Z M 830.347656 1235.460938 C 822.960938 1235.238281 776.996094 1212.300781 784.871094 1253.320312 C 799.296875 1328.441406 821.433594 1281.769531 742.25 1415.011719 C 726.882812 1415.089844 723.089844 1408.761719 716.707031 1415.230469 C 708.035156 1426.199219 719.550781 1447.199219 719.070312 1461.808594 C 699.964844 1472.199219 673.679688 1509.988281 667.519531 1540.960938 C 652.609375 1615.949219 671.65625 1690.25 708.585938 1753.800781 C 726.878906 1785.289062 745.230469 1804.238281 770.246094 1825.121094 C 824.164062 1870.140625 884.273438 1888.957031 975.441406 1879.902344 C 1086.730469 1868.847656 1165.660156 1816.828125 1247.488281 1753.949219 C 1263.679688 1741.511719 1273.769531 1742.839844 1295.921875 1736.640625 C 1311.730469 1732.21875 1330.839844 1725.960938 1347.300781 1720.769531 C 1533.828125 1661.980469 1664.910156 1561.710938 1738.820312 1382.378906 C 1744.289062 1369.089844 1751.410156 1343.5 1758.671875 1334 C 1788.011719 1334.769531 1819.621094 1362.699219 1830.539062 1378.828125 C 1848.128906 1404.828125 1855.570312 1434.628906 1854.859375 1473.898438 C 1853.628906 1541.371094 1802.851562 1595.351562 1772.398438 1626.871094 C 1734.300781 1666.300781 1696.859375 1703.101562 1658.148438 1746.851562 C 1631.488281 1776.988281 1608.851562 1818.160156 1595 1858.992188 C 1590.21875 1873.078125 1586.648438 1891.210938 1581.730469 1904.214844 C 1566.230469 1896.886719 1556.351562 1867.285156 1532.308594 1886.796875 C 1509.398438 1905.390625 1509.300781 1904.65625 1471.78125 1905.246094 C 1420.070312 1906.058594 1369.308594 1906.367188 1318.449219 1911.769531 C 1246.769531 1919.378906 1248.148438 1918.144531 1206.851562 1957.976562 C 1176.160156 1987.570312 1163.769531 1986.863281 1128.300781 1999.636719 C 1114.941406 2004.449219 1106.238281 2007.089844 1104.960938 2016.113281 C 1119.46875 2024.105469 1171.871094 2013.828125 1228.988281 2054.21875 C 1246.691406 2066.734375 1258.789062 2077.863281 1274.480469 2091.015625 C 1319.988281 2129.15625 1342.550781 2114.976562 1408.5 2114.09375 C 1459.671875 2113.40625 1446.351562 2193.195312 1502.910156 2184.652344 C 1517.988281 2182.375 1559.839844 2171.339844 1572.078125 2173.183594 C 1579.671875 2198.21875 1578.03125 2214.035156 1593.878906 2233.664062 C 1621.480469 2267.84375 1681.929688 2264.847656 1720.851562 2250.53125 C 1734.878906 2245.371094 1733.949219 2241.6875 1735.578125 2225.019531 L 1737.761719 2195.394531 C 1738.828125 2187.8125 1737.160156 2191.898438 1740.148438 2187.28125 C 1754.511719 2179.539062 1811.601562 2181.964844 1829.96875 2185.523438 C 1854.988281 2190.371094 1883.28125 2199.527344 1903.808594 2210.695312 C 1952.238281 2237.046875 1947.988281 2274.148438 2027.578125 2204.835938 C 2049.761719 2185.527344 2073.980469 2187.757812 2108.898438 2188.113281 C 2141.171875 2188.4375 2171.949219 2191.269531 2203.839844 2193.261719 C 2235.78125 2195.261719 2263.621094 2193.378906 2291.570312 2184.136719 C 2309.179688 2178.3125 2351.949219 2161.378906 2348.078125 2144.265625 C 2340.339844 2134.003906 2315.691406 2133.683594 2300.160156 2130.796875 C 2187.488281 2109.84375 2200.148438 2033.554688 2080.328125 1974.980469 C 2067.28125 1968.605469 2047.359375 1961.238281 2038.808594 1952.816406 C 2052.679688 1929.148438 2116.179688 1877.859375 2122.019531 1859.984375 C 2109.980469 1854.859375 2016.488281 1876.144531 1998.929688 1880.667969 C 1931.480469 1898.054688 1841.761719 1930.574219 1792.589844 1974.0625 C 1780.210938 1985.015625 1766.851562 1998.535156 1755.429688 2010.765625 C 1743.480469 2023.550781 1726.339844 2049.378906 1720.03125 2052.085938 C 1717.738281 2000.492188 1783.949219 1899.371094 1806.339844 1871.765625 C 1898.960938 1757.601562 1971.601562 1695.359375 2001.890625 1533.890625 C 2030.5 1381.328125 1966.21875 1249.730469 1843.960938 1173.359375 C 1830.328125 1164.839844 1816.589844 1158.21875 1799.101562 1152.839844 C 1767.988281 1143.269531 1774.328125 1149.519531 1769.921875 1113.980469 C 1755.261719 995.730469 1693.859375 820.800781 1607.769531 740.78125 C 1595.101562 729.011719 1586.488281 719.210938 1573.109375 707.921875 C 1506.730469 651.96875 1456.300781 616.699219 1362.589844 585.199219 C 1327.75 573.488281 1296.171875 564.988281 1261.25 553.519531 C 1244.628906 548.050781 1232.398438 535.609375 1220.851562 526.371094 C 1147.558594 467.769531 1102.789062 429.039062 986.539062 425.429688 C 888.035156 422.378906 805.238281 459.710938 752.671875 524.839844 C 719.269531 566.230469 700.648438 606.25 689.101562 661.660156 C 673.996094 734.140625 685.441406 832.28125 708.617188 897.230469 C 736.90625 976.5 804.992188 1084.640625 856.035156 1150.699219 C 869.328125 1167.898438 874.929688 1165.148438 856.34375 1193.960938 C 847.601562 1207.511719 838.71875 1226.339844 830.347656 1235.460938 "/>
<path fill-rule="evenodd" fill="rgb(98.046875%, 98.046875%, 98.046875%)" fill-opacity="1" d="M 865.132812 604.101562 C 890.058594 596.441406 903.71875 587.230469 935.832031 587.089844 C 1070.53125 586.480469 1196.121094 759.570312 1266.238281 856.550781 C 1346.148438 967.078125 1456.160156 1099.148438 1492.578125 1229.621094 C 1500.539062 1258.109375 1500.730469 1273.210938 1485.5 1297.671875 C 1457.539062 1342.558594 1350.398438 1433.410156 1310.519531 1466.710938 C 1251.351562 1516.101562 1182.359375 1577 1123.238281 1621.199219 C 1068.820312 1661.898438 971.757812 1731.640625 872.738281 1699.460938 C 823.742188 1683.53125 811.902344 1657.75 788.253906 1612.980469 C 777.375 1592.390625 739.121094 1503.371094 731.1875 1498.949219 C 719.546875 1503.371094 707.257812 1522.179688 701.199219 1536.800781 C 664.574219 1625.210938 721.765625 1787.441406 836.027344 1839.527344 C 984.574219 1907.246094 1133.359375 1813 1220.460938 1743.78125 C 1240.621094 1727.761719 1300.789062 1666.308594 1320.449219 1645.410156 C 1379.28125 1582.828125 1415.839844 1536.140625 1469.390625 1467.320312 C 1509.441406 1415.851562 1543.71875 1380.839844 1559.828125 1296.378906 C 1574.808594 1217.851562 1554.898438 1139.539062 1530.519531 1073.128906 C 1483.269531 944.480469 1388.261719 740.679688 1298.601562 646.949219 C 1240.171875 585.878906 1166.070312 501.089844 1085.050781 468.089844 C 1019.628906 441.449219 923.945312 441.589844 862.054688 469.800781 C 795.152344 500.289062 761.464844 532.300781 730.636719 599.988281 C 711.648438 641.679688 709.363281 654.710938 707.878906 707.941406 C 705.578125 790.289062 715.902344 853.949219 750.992188 926.671875 C 758.414062 942.050781 765.121094 955.5 773.621094 969.390625 C 779.835938 979.539062 791.636719 1003.339844 802.921875 1006.261719 C 810.320312 992.601562 814.847656 946.429688 817.980469 927.660156 C 823.582031 894.078125 834.488281 883.511719 820.039062 853.328125 C 802.796875 852.78125 780.503906 873.261719 769.300781 868.570312 C 760.242188 862.71875 766.964844 827.820312 768.003906 819.019531 C 792.855469 609.328125 928.640625 617.511719 943.019531 598.308594 C 933.78125 590.589844 913.308594 596.308594 902.433594 598.53125 C 896.363281 599.769531 889.84375 601.261719 883.625 603.070312 C 860.179688 609.871094 868.351562 606.171875 865.132812 604.101562 "/>
<path fill-rule="evenodd" fill="rgb(39.988708%, 4.998779%, 4.998779%)" fill-opacity="1" d="M 867.953125 646.839844 C 875.109375 658.648438 890.320312 655.089844 911 690.601562 C 921.609375 708.820312 930.109375 731.96875 929.550781 758.75 C 929.085938 781.140625 926.253906 775.5 915.183594 786.539062 C 897.898438 803.789062 871.964844 818.851562 850.554688 831.71875 C 844.308594 835.46875 842.375 837.101562 841.933594 844.359375 C 862.703125 856.890625 890.839844 849.691406 923.949219 914.039062 C 930.773438 927.308594 944.945312 959.449219 931.714844 973.96875 C 929.570312 976.320312 928.011719 975.941406 922.929688 983.78125 C 903.347656 1014.011719 873.835938 995.210938 896.261719 1038.738281 C 897.789062 1041.710938 898.46875 1043.71875 900.394531 1047.148438 C 906.414062 1057.871094 912.894531 1068.941406 918.597656 1079.488281 L 940.121094 1119.570312 C 942.027344 1123.050781 942.871094 1124.378906 944.742188 1127.558594 C 970.605469 1171.53125 977.46875 1180.609375 942.816406 1229.78125 L 922.558594 1260.488281 C 916.988281 1273.730469 902.84375 1271.75 920.957031 1286.25 L 952.472656 1311.648438 C 972.570312 1328.578125 973.820312 1318.851562 1000.949219 1290.128906 C 1013.601562 1276.730469 1029.140625 1267.648438 1042.238281 1255.359375 C 1045.808594 1252.019531 1045.78125 1250.578125 1049.128906 1247.648438 L 1105.449219 1211.03125 C 1127.960938 1197.269531 1159.738281 1179.699219 1182.75 1167.988281 L 1265.089844 1128.179688 C 1278.539062 1121.648438 1294.03125 1117.078125 1305.730469 1109.289062 C 1312.921875 1104.488281 1319.820312 1091.488281 1325.191406 1084.769531 L 1337.570312 1065.800781 C 1342.050781 1056.808594 1351.238281 1045.609375 1355.308594 1036.96875 C 1359.378906 1028.351562 1357.730469 1021.480469 1352.359375 1015.019531 C 1346.828125 1008.359375 1343.851562 1003.5 1338.570312 997.25 L 1325.539062 980.691406 C 1319.410156 973.628906 1312.921875 974.761719 1304.078125 978.808594 L 1294.011719 983.710938 C 1268.230469 996.050781 1238.558594 1003.191406 1216.5 1013.769531 C 1200.210938 1021.570312 1177.199219 1019.261719 1160.539062 1016.441406 C 1156.78125 1005.761719 1152.109375 999.078125 1151.921875 986.621094 C 1151.410156 952.789062 1156.148438 915.679688 1171.328125 886.480469 C 1179.351562 871.078125 1188.230469 851.359375 1198.699219 835.671875 C 1206.121094 824.558594 1206.699219 819.101562 1199.011719 807.910156 C 1192.671875 798.710938 1191.160156 791.578125 1182.691406 784.660156 L 1061.398438 833.949219 C 1054.25 837.101562 1057 837.089844 1046.949219 839.730469 C 1039.449219 841.699219 1037.601562 842.761719 1031.308594 845.339844 L 1023.730469 848.46875 C 955.726562 876.78125 963.113281 839.550781 963.210938 786.089844 C 963.253906 763.480469 964.789062 732.769531 974.496094 712.75 L 983.492188 694.460938 C 992.65625 674.769531 1008.539062 658.46875 1025.660156 645.949219 C 1031.671875 641.550781 1034.550781 640.601562 1035.039062 632.070312 C 1031.339844 628.03125 1005.550781 614.800781 999.839844 613.429688 C 963.242188 604.621094 923.714844 617.390625 892.929688 632.75 L 867.953125 646.839844 "/>
<path fill-rule="evenodd" fill="rgb(27.001953%, 46.99707%, 11.009216%)" fill-opacity="1" d="M 1768.378906 1308.171875 C 1810.898438 1324.640625 1842.761719 1328.859375 1869.589844 1386.300781 C 1882.320312 1413.558594 1885.171875 1422.230469 1884.941406 1459.121094 C 1884.589844 1514.621094 1871.480469 1550.789062 1840.75 1593.871094 C 1815.320312 1629.539062 1782.480469 1660.078125 1755.941406 1690.621094 C 1711.109375 1742.210938 1667.441406 1778.921875 1639.179688 1843.839844 C 1606.519531 1918.878906 1598.191406 2078.859375 1603.179688 2165.871094 C 1605.089844 2199.171875 1607.851562 2213.503906 1631.449219 2227.589844 C 1641.480469 2233.578125 1660.078125 2231.09375 1672.171875 2230.828125 C 1698.121094 2230.261719 1715.621094 2234.011719 1710.390625 2199.730469 C 1710.289062 2199.050781 1710.179688 2198.515625 1710.050781 2197.890625 C 1706.640625 2182.550781 1673.160156 2197.210938 1665.738281 2189.117188 C 1657.839844 2167.476562 1677.429688 2136.074219 1683.371094 2118.214844 C 1703.800781 2056.792969 1667.25 2037.726562 1751.410156 1901.445312 C 1764.058594 1880.960938 1775.671875 1866.703125 1791.46875 1846.378906 C 1830.460938 1796.210938 1880.898438 1737.039062 1913.648438 1683.738281 C 1957.5 1612.390625 1993.230469 1468.46875 1963.089844 1375.109375 C 1947.890625 1328.058594 1921.96875 1294.121094 1889.871094 1258.398438 C 1876.570312 1243.601562 1858.320312 1225.398438 1839.871094 1213.238281 C 1828.789062 1205.929688 1790.410156 1183.199219 1777.078125 1184.261719 C 1774.03125 1202.710938 1775.820312 1228.121094 1774.121094 1247.601562 C 1772.480469 1266.480469 1768.429688 1288.070312 1768.378906 1308.171875 "/>
<path fill-rule="evenodd" fill="rgb(84.959412%, 33.006287%, 32.00531%)" fill-opacity="1" d="M 903.355469 1539.289062 C 903.414062 1569.570312 902.78125 1578.621094 913.867188 1603.488281 C 920.730469 1618.878906 931.515625 1637.238281 942.265625 1648.871094 C 957.484375 1665.339844 961.492188 1675.410156 989.117188 1668.328125 C 1007.230469 1663.679688 1029.691406 1654.828125 1041.320312 1644.78125 C 1043.011719 1630.601562 1015.761719 1567.921875 1009.621094 1547.699219 C 998.34375 1510.589844 991.90625 1475.640625 992.101562 1431.691406 C 992.171875 1415.398438 993.023438 1406.148438 1006.738281 1401.421875 C 1048.078125 1387.160156 1206.800781 1500.339844 1224.878906 1497.851562 C 1239.160156 1490.558594 1263.378906 1469.148438 1279.539062 1456.839844 C 1311.359375 1432.589844 1302.300781 1428.339844 1292.039062 1389.808594 C 1284.398438 1361.140625 1252.949219 1255.78125 1261.949219 1232.5 C 1294.160156 1227.46875 1380.921875 1283.519531 1410.699219 1300.75 C 1431.28125 1312.671875 1439.679688 1324.621094 1466.21875 1267.949219 C 1477.578125 1243.679688 1458.160156 1197.550781 1448.101562 1181.359375 C 1435.429688 1179.078125 1372.710938 1197.039062 1351.910156 1199.75 C 1337.191406 1201.671875 1310.761719 1203.230469 1296.351562 1199.789062 C 1272.148438 1194.011719 1281.46875 1180.691406 1281.648438 1159.769531 C 1263.800781 1162.410156 1170.910156 1211.378906 1155.269531 1220.648438 C 1113.839844 1245.238281 1072.429688 1269.039062 1041.058594 1296.421875 C 984.1875 1346.039062 952.730469 1393.359375 920.707031 1461 C 907.921875 1488.011719 903.28125 1503.871094 903.355469 1539.289062 "/>
<path fill-rule="evenodd" fill="rgb(80.076599%, 9.008789%, 5.999756%)" fill-opacity="1" d="M 1569.460938 1358.011719 C 1567.300781 1373.640625 1564.578125 1366.75 1572.421875 1379.640625 C 1575.929688 1385.410156 1578.019531 1390.789062 1579.738281 1399.480469 C 1591.808594 1460.148438 1543.011719 1547.46875 1497.25 1577.488281 C 1448.839844 1609.238281 1430.511719 1576.75 1421.101562 1573.199219 L 1411.601562 1580.050781 C 1405.121094 1595.789062 1322.460938 1677.179688 1317.46875 1691.171875 C 1335.230469 1691.761719 1421.238281 1659.441406 1436.808594 1649.890625 C 1481.269531 1622.621094 1519.019531 1609.710938 1566.730469 1564.710938 C 1574.851562 1557.039062 1588.761719 1547.660156 1596.351562 1539.480469 C 1607.949219 1526.960938 1592.828125 1493.28125 1606.671875 1441.820312 C 1616.070312 1406.890625 1655.640625 1326.191406 1678.269531 1298.539062 C 1710.199219 1259.539062 1720.589844 1264.71875 1737.601562 1250.25 C 1738.648438 1231.101562 1738.371094 1212.410156 1738.589844 1193.269531 C 1738.730469 1181.46875 1740.898438 1175.28125 1733.351562 1168.050781 C 1712.929688 1148.511719 1712.671875 1155.511719 1692.429688 1122.339844 C 1676.949219 1096.96875 1664.730469 1072.671875 1655.949219 1042.851562 C 1647.210938 1013.148438 1649.609375 1034.871094 1645.089844 994.621094 C 1643.101562 976.828125 1641.441406 957.53125 1642.789062 938.050781 C 1644.308594 916.210938 1648.160156 912.660156 1658.121094 902.75 C 1661.050781 899.839844 1660.378906 900.429688 1662.488281 897.910156 C 1663.328125 876.921875 1625.808594 823.140625 1615.371094 809.109375 C 1607.730469 798.851562 1559.300781 742.648438 1549.800781 739.761719 L 1546.820312 745.050781 C 1550.71875 748.761719 1550.980469 749.589844 1553.460938 755.398438 C 1554.800781 758.539062 1556.148438 761.980469 1557.640625 765.710938 C 1567.839844 791.398438 1570.449219 811.949219 1567.890625 841 C 1564.269531 881.921875 1527.460938 887.171875 1500.671875 864.691406 C 1482.828125 849.710938 1461.679688 820.261719 1454.601562 796.671875 C 1449.628906 780.140625 1432.308594 712.191406 1452.730469 700.570312 C 1451.449219 696.609375 1455.550781 691.050781 1459.871094 687.75 C 1467.5 681.921875 1470.890625 685.460938 1475.589844 678.488281 C 1464.671875 667.921875 1411.371094 643.960938 1391.558594 634.238281 C 1381.121094 629.121094 1309.421875 599.570312 1299.390625 599.128906 C 1300.808594 607.300781 1321.421875 625.53125 1327.78125 634.570312 L 1358.089844 671.808594 C 1367.441406 683.148438 1376.351562 697.050781 1386.308594 711.269531 C 1424.589844 765.96875 1469.660156 851.441406 1498.078125 913.648438 L 1524.078125 974.191406 C 1530.921875 989.480469 1537.421875 1006.160156 1543.660156 1021.789062 C 1571.589844 1091.660156 1592.078125 1170.078125 1590.800781 1246.03125 C 1589.46875 1324.960938 1574.921875 1330.078125 1569.460938 1358.011719 "/>
<path fill-rule="evenodd" fill="rgb(27.001953%, 46.99707%, 11.009216%)" fill-opacity="1" d="M 2294.25 2161.6875 C 2292.269531 2154.960938 2291.300781 2156.21875 2282.078125 2154.949219 C 2244.128906 2149.738281 2223.929688 2134.800781 2197.941406 2108.539062 C 2174.019531 2084.359375 2148.53125 2057.746094 2123.800781 2032.886719 C 2082.890625 1991.757812 2068.238281 1995.164062 2030.5 1976.222656 C 1988.601562 1955.191406 2057.148438 1918.003906 2066.839844 1894.242188 C 2049.738281 1895.609375 1990.210938 1916.910156 1972.421875 1924.054688 C 1908.371094 1949.769531 1868.019531 1956.429688 1808.859375 2007.179688 C 1796.691406 2017.613281 1754.390625 2056.011719 1750.140625 2071.230469 C 1762.308594 2069.53125 1776.050781 2059.816406 1789.171875 2055.078125 C 1804.449219 2049.558594 1814.039062 2044.703125 1830.738281 2041.882812 C 1848.5 2038.886719 1864.359375 2038.613281 1883.179688 2039.277344 L 1920 2042.625 C 1920.308594 2042.6875 1924.769531 2043.789062 1925.109375 2043.894531 C 1929.980469 2045.40625 1927.058594 2044.128906 1929.789062 2045.894531 C 1864.191406 2047.167969 1824.71875 2049.109375 1773.449219 2075.074219 C 1750.238281 2086.832031 1736.300781 2096.351562 1719.320312 2113.929688 C 1707.921875 2125.730469 1684.230469 2150.355469 1683.570312 2167.054688 C 1711.980469 2169.734375 1764.058594 2157.300781 1832.519531 2164.011719 C 1878.5 2168.519531 1914.800781 2188.132812 1943.75 2208.753906 C 1971.03125 2228.183594 1974.859375 2218.652344 1995.460938 2202.339844 C 2006.589844 2193.527344 2026.949219 2175.148438 2041.609375 2170.558594 C 2084.808594 2157.015625 2142.609375 2166.992188 2189.070312 2166.988281 C 2214.210938 2166.992188 2280.78125 2168.820312 2294.25 2161.6875 "/>
<path fill-rule="evenodd" fill="rgb(27.001953%, 46.99707%, 11.009216%)" fill-opacity="1" d="M 1175.949219 2009.78125 C 1183.058594 2015.101562 1187.308594 2014.023438 1197.058594 2016.671875 C 1210.359375 2020.285156 1239.449219 2036.679688 1251.609375 2044.246094 C 1272.601562 2057.316406 1296.109375 2079.933594 1314.960938 2088.375 C 1340.441406 2099.789062 1387.179688 2089.234375 1416.988281 2090.3125 C 1447.601562 2091.421875 1462.789062 2114.460938 1477.691406 2136.632812 C 1492.648438 2158.890625 1490.78125 2165.085938 1555.550781 2149 C 1556.089844 2148.867188 1561.789062 2147.171875 1562.308594 2146.878906 C 1574.449219 2140.207031 1573.371094 2070.488281 1569.71875 2061.554688 C 1546.171875 2003.847656 1454.53125 1980.652344 1444.839844 1972.308594 C 1481.261719 1970.921875 1518.050781 1988.199219 1545.308594 2010.066406 C 1552.730469 2016.019531 1562.910156 2027.980469 1572.230469 2028.097656 C 1574.679688 2005.203125 1576.949219 1985.109375 1577.261719 1961.171875 C 1577.53125 1940.011719 1563.691406 1922.46875 1551.910156 1915.160156 C 1545.320312 1913.984375 1535.308594 1929.046875 1509.699219 1931.628906 C 1482.28125 1934.390625 1376.96875 1934.308594 1336.738281 1936.605469 C 1238.871094 1942.195312 1260.378906 1948.726562 1210.25 1986.53125 C 1192.710938 1999.757812 1189.859375 1997.914062 1182.078125 2002.765625 C 1173.570312 2008.074219 1178.558594 2002.945312 1175.949219 2009.78125 "/>
<path fill-rule="evenodd" fill="rgb(98.046875%, 98.046875%, 98.046875%)" fill-opacity="1" d="M 984.875 831.929688 C 1012.511719 831.828125 1149.519531 779.160156 1161.929688 762.878906 C 1158.800781 743.800781 1073.628906 657.730469 1056.101562 646.601562 C 1035.390625 651.851562 1005.460938 690.660156 996.277344 715.640625 C 987.589844 739.269531 977.246094 805.910156 984.875 831.929688 "/>
<path fill-rule="evenodd" fill="rgb(98.046875%, 98.046875%, 98.046875%)" fill-opacity="1" d="M 1066.648438 1628.460938 C 1085.171875 1621.960938 1196.019531 1526.109375 1199.558594 1518.191406 C 1194.199219 1511.621094 1039.96875 1425.351562 1016.96875 1428.320312 C 1007.621094 1474.25 1049.140625 1611.378906 1066.648438 1628.460938 "/>
<path fill-rule="evenodd" fill="rgb(98.046875%, 98.046875%, 98.046875%)" fill-opacity="1" d="M 929.089844 1678.421875 C 923.429688 1664.199219 895.28125 1647.871094 879.804688 1580.949219 C 864.835938 1516.230469 892.976562 1541.289062 815.273438 1495.359375 C 802.609375 1487.878906 762.492188 1461.890625 750.617188 1459.328125 C 752.164062 1488.140625 795.445312 1572.808594 808.777344 1598.828125 C 821.371094 1623.398438 831.414062 1643.089844 849.605469 1657.210938 C 865.351562 1669.429688 902.738281 1681.628906 929.089844 1678.421875 "/>
<path fill-rule="evenodd" fill="rgb(98.046875%, 98.046875%, 98.046875%)" fill-opacity="1" d="M 1450.949219 746.898438 C 1454.089844 796 1486.46875 851.390625 1515.160156 866.960938 C 1560.75 891.699219 1569.378906 832.691406 1557.828125 786.53125 C 1554.601562 773.628906 1548.148438 762.671875 1545.308594 751.75 C 1537.390625 741.070312 1532.949219 730.519531 1524.539062 720.660156 C 1516.871094 711.660156 1507.648438 701.371094 1495.800781 694.53125 C 1460.070312 673.890625 1449.449219 716.371094 1450.949219 746.898438 "/>
<path fill-rule="evenodd" fill="rgb(98.046875%, 98.046875%, 98.046875%)" fill-opacity="1" d="M 782.511719 844.410156 C 800.894531 844.058594 861.957031 799.359375 878.5625 787.808594 C 895.550781 775.988281 915.34375 764.679688 912.410156 746.398438 C 906.726562 710.96875 870.871094 648.921875 839.851562 671.089844 C 809.886719 692.5 770.941406 801.980469 782.511719 844.410156 "/>
<path fill-rule="evenodd" fill="rgb(98.046875%, 98.046875%, 98.046875%)" fill-opacity="1" d="M 1611 1524.171875 C 1622.800781 1522.261719 1648.320312 1485.230469 1655.519531 1474.128906 C 1668.46875 1454.179688 1679.148438 1436.601562 1691.53125 1413.101562 C 1705.21875 1387.140625 1741.890625 1298.179688 1735.488281 1262.800781 C 1712.25 1261.25 1689.460938 1291.398438 1679.980469 1304.5 C 1651.320312 1344.101562 1590.101562 1473.929688 1611 1524.171875 "/>
<path fill-rule="evenodd" fill="rgb(98.046875%, 98.046875%, 98.046875%)" fill-opacity="1" d="M 1428.390625 1567.488281 C 1441.609375 1576.699219 1435.628906 1583.550781 1459.03125 1583.828125 C 1476.691406 1584.039062 1483.03125 1580.75 1494 1572.128906 C 1545.371094 1531.78125 1592.121094 1451.351562 1568.679688 1380.371094 L 1562.070312 1379.050781 L 1460.308594 1517.398438 C 1449.710938 1531.058594 1431.179688 1550.738281 1428.390625 1567.488281 "/>
<path fill-rule="evenodd" fill="rgb(98.046875%, 98.046875%, 98.046875%)" fill-opacity="1" d="M 821.269531 1268.371094 C 815.039062 1282.191406 874.121094 1445.480469 893.644531 1455.128906 C 900.496094 1449.578125 904.515625 1436.570312 908.792969 1427.800781 C 916.242188 1412.539062 951.933594 1349.390625 953.648438 1339.789062 C 945.152344 1335.109375 858.0625 1260.839844 821.269531 1268.371094 "/>
<path fill-rule="evenodd" fill="rgb(98.046875%, 98.046875%, 98.046875%)" fill-opacity="1" d="M 1172.488281 1000.800781 C 1199.800781 1002.75 1288.808594 966.691406 1298.789062 952.761719 C 1301.738281 942.570312 1253.359375 882.738281 1243.378906 868.800781 C 1236.378906 859.011719 1231.359375 847.070312 1220.660156 842.371094 C 1214.46875 846.578125 1218.890625 842.21875 1214.320312 849.339844 C 1212.890625 851.570312 1211.089844 855.21875 1209.839844 857.601562 C 1199.601562 877.050781 1194.210938 891.359375 1185.941406 911.691406 C 1176.128906 935.78125 1168.808594 972.191406 1172.488281 1000.800781 "/>
<path fill-rule="evenodd" fill="rgb(98.046875%, 98.046875%, 98.046875%)" fill-opacity="1" d="M 1738.410156 1160.480469 C 1745.128906 1106.398438 1712.550781 1002.589844 1691.890625 949.820312 C 1686.140625 935.148438 1674.121094 891.769531 1657.199219 914.558594 C 1632.191406 948.25 1666.5 1071.699219 1696.320312 1118.46875 C 1703.050781 1129.019531 1726.089844 1161.308594 1738.410156 1160.480469 "/>
<path fill-rule="evenodd" fill="rgb(98.046875%, 98.046875%, 98.046875%)" fill-opacity="1" d="M 1321.871094 1417.230469 C 1335.601562 1414.921875 1391.140625 1359.671875 1407.378906 1344.160156 C 1413.398438 1338.410156 1415.738281 1338.800781 1417.691406 1329.53125 C 1396.480469 1318.929688 1302.410156 1259.378906 1284.21875 1258.820312 C 1284.949219 1278.5 1314.941406 1390.71875 1321.871094 1417.230469 "/>
<path fill-rule="evenodd" fill="rgb(98.046875%, 98.046875%, 98.046875%)" fill-opacity="1" d="M 1299.851562 1185.109375 C 1332.300781 1187.171875 1412.648438 1172.199219 1433.378906 1157.410156 C 1432.570312 1144.640625 1384.78125 1051.628906 1369.671875 1045.050781 C 1356.820312 1066.699219 1298.078125 1165.070312 1299.851562 1185.109375 "/>
<path fill-rule="evenodd" fill="rgb(98.046875%, 98.046875%, 98.046875%)" fill-opacity="1" d="M 816.757812 1016.761719 C 847.085938 1015.171875 911.992188 977.460938 919.660156 959.429688 C 930.179688 934.671875 879.519531 868 850.605469 869.921875 C 840.570312 891.46875 833.550781 907.5 828.367188 935.851562 C 823.785156 960.890625 816.902344 990.53125 816.757812 1016.761719 "/>
<path fill-rule="evenodd" fill="rgb(98.046875%, 98.046875%, 98.046875%)" fill-opacity="1" d="M 821.910156 1036.570312 C 824.847656 1054.828125 876.972656 1123.769531 889.421875 1140.679688 C 907.289062 1164.941406 910.449219 1169.269531 892.566406 1198.519531 C 885.074219 1210.78125 864.230469 1240.511719 860.304688 1252.058594 C 869.292969 1256.640625 875.402344 1263.449219 887.6875 1262.980469 C 900.285156 1246.550781 912.753906 1229.609375 924.570312 1209.519531 C 944.1875 1176.148438 941.875 1177.371094 924.945312 1142.988281 C 914.785156 1122.359375 905.433594 1103.089844 894.585938 1082.671875 L 862.238281 1022.351562 C 847.113281 1022.078125 831.242188 1030.519531 821.910156 1036.570312 "/>
<path fill-rule="evenodd" fill="rgb(98.046875%, 98.046875%, 98.046875%)" fill-opacity="1" d="M 768.691406 1434.589844 C 777.550781 1439.460938 784.535156 1447.539062 796.542969 1450.320312 C 809.261719 1427.949219 841.765625 1380.808594 813.46875 1351.5 C 804.65625 1356.539062 770.605469 1420.421875 768.691406 1434.589844 "/>
<path fill-rule="evenodd" fill="rgb(16.992188%, 4.998779%, 3.999329%)" fill-opacity="1" d="M 1546.820312 745.050781 L 1545.308594 751.75 C 1548.148438 762.671875 1554.601562 773.628906 1557.828125 786.53125 C 1569.378906 832.691406 1560.75 891.699219 1515.160156 866.960938 C 1486.46875 851.390625 1454.089844 796 1450.949219 746.898438 C 1443.511719 727.539062 1449.578125 719.679688 1452.730469 700.570312 C 1432.308594 712.191406 1449.628906 780.140625 1454.601562 796.671875 C 1461.679688 820.261719 1482.828125 849.710938 1500.671875 864.691406 C 1527.460938 887.171875 1564.269531 881.921875 1567.890625 841 C 1570.449219 811.949219 1567.839844 791.398438 1557.640625 765.710938 C 1556.148438 761.980469 1554.800781 758.539062 1553.460938 755.398438 C 1550.980469 749.589844 1550.71875 748.761719 1546.820312 745.050781 "/>
<path fill-rule="evenodd" fill="rgb(25%, 3.999329%, 4.998779%)" fill-opacity="1" d="M 1562.070312 1379.050781 L 1568.679688 1380.371094 C 1592.121094 1451.351562 1545.371094 1531.78125 1494 1572.128906 C 1483.03125 1580.75 1476.691406 1584.039062 1459.03125 1583.828125 C 1435.628906 1583.550781 1441.609375 1576.699219 1428.390625 1567.488281 L 1428.160156 1571.269531 C 1417.621094 1567.011719 1414.710938 1570.058594 1411.601562 1580.050781 L 1421.101562 1573.199219 C 1430.511719 1576.75 1448.839844 1609.238281 1497.25 1577.488281 C 1543.011719 1547.46875 1591.808594 1460.148438 1579.738281 1399.480469 C 1578.019531 1390.789062 1575.929688 1385.410156 1572.421875 1379.640625 C 1564.578125 1366.75 1567.300781 1373.640625 1569.460938 1358.011719 C 1562.28125 1363.558594 1569.761719 1353.648438 1565.289062 1362.539062 C 1561.890625 1369.308594 1564.46875 1363.621094 1563.578125 1368.210938 C 1562.039062 1376.078125 1566.269531 1370.488281 1562.070312 1379.050781 "/>
<path fill-rule="evenodd" fill="rgb(37.988281%, 4.998779%, 4.998779%)" fill-opacity="1" d="M 880.882812 1495.019531 C 880.160156 1484.039062 866.941406 1467.109375 860.773438 1458.429688 C 857.320312 1453.570312 852.648438 1443.828125 850.402344 1439.238281 C 847.222656 1432.761719 845.652344 1424.730469 838.785156 1420.96875 C 832 1424.03125 835.378906 1422.320312 830.929688 1430.328125 C 808.722656 1470.320312 828.074219 1466.511719 853.984375 1484.148438 C 860.53125 1488.609375 873.292969 1495.171875 880.882812 1495.019531 "/>
<path fill-rule="evenodd" fill="rgb(92.96875%, 92.96875%, 92.96875%)" fill-opacity="1" d="M 1465.410156 1828.339844 L 1465.390625 1857.886719 L 1490.71875 1857.886719 L 1503.390625 1857.941406 L 1503.398438 1819.890625 L 1465.390625 1819.878906 L 1465.410156 1828.339844 "/>
</svg>
